<mxfile host="app.diagrams.net" agent="Mozilla/5.0 (Windows NT 10.0; Win64; x64) AppleWebKit/537.36 (KHTML, like Gecko) Chrome/130.0.0.0 Safari/537.36" version="24.8.4">
  <diagram name="Page-1" id="De-dLeArJCdhDop-_uYB">
    <mxGraphModel dx="797" dy="351" grid="1" gridSize="10" guides="1" tooltips="1" connect="1" arrows="1" fold="1" page="1" pageScale="1" pageWidth="827" pageHeight="1169" math="0" shadow="0">
      <root>
        <mxCell id="0" />
        <mxCell id="1" parent="0" />
        <mxCell id="WJpGuPypxHFoIizaGQoz-1" value="Student" style="shape=umlActor;verticalLabelPosition=bottom;verticalAlign=top;html=1;outlineConnect=0;" vertex="1" parent="1">
          <mxGeometry x="65" y="120" width="30" height="60" as="geometry" />
        </mxCell>
        <mxCell id="WJpGuPypxHFoIizaGQoz-2" value="Vendor" style="shape=umlActor;verticalLabelPosition=bottom;verticalAlign=top;html=1;outlineConnect=0;" vertex="1" parent="1">
          <mxGeometry x="465" y="120" width="30" height="60" as="geometry" />
        </mxCell>
        <mxCell id="WJpGuPypxHFoIizaGQoz-3" value=":Cloudinary" style="rounded=0;whiteSpace=wrap;html=1;" vertex="1" parent="1">
          <mxGeometry x="120" y="135" width="80" height="30" as="geometry" />
        </mxCell>
        <mxCell id="WJpGuPypxHFoIizaGQoz-4" value="&lt;font style=&quot;font-size: 9px;&quot;&gt;:PaymentGateway&lt;/font&gt;" style="rounded=0;whiteSpace=wrap;html=1;" vertex="1" parent="1">
          <mxGeometry x="361" y="135" width="80" height="30" as="geometry" />
        </mxCell>
        <mxCell id="WJpGuPypxHFoIizaGQoz-5" value="&lt;font style=&quot;font-size: 9px;&quot;&gt;:PrinterSpoolerAPI&lt;/font&gt;" style="rounded=0;whiteSpace=wrap;html=1;" vertex="1" parent="1">
          <mxGeometry x="640" y="135" width="80" height="30" as="geometry" />
        </mxCell>
        <mxCell id="WJpGuPypxHFoIizaGQoz-8" value=":Printer" style="rounded=0;whiteSpace=wrap;html=1;" vertex="1" parent="1">
          <mxGeometry x="760" y="135" width="80" height="30" as="geometry" />
        </mxCell>
        <mxCell id="WJpGuPypxHFoIizaGQoz-10" value="" style="endArrow=none;dashed=1;html=1;rounded=0;" edge="1" parent="1" source="WJpGuPypxHFoIizaGQoz-79">
          <mxGeometry width="50" height="50" relative="1" as="geometry">
            <mxPoint x="80" y="210" as="sourcePoint" />
            <mxPoint x="80" y="840" as="targetPoint" />
          </mxGeometry>
        </mxCell>
        <mxCell id="WJpGuPypxHFoIizaGQoz-12" value="" style="endArrow=none;dashed=1;html=1;rounded=0;" edge="1" parent="1" source="WJpGuPypxHFoIizaGQoz-19">
          <mxGeometry width="50" height="50" relative="1" as="geometry">
            <mxPoint x="159.8" y="209" as="sourcePoint" />
            <mxPoint x="160" y="840" as="targetPoint" />
          </mxGeometry>
        </mxCell>
        <mxCell id="WJpGuPypxHFoIizaGQoz-13" value="" style="endArrow=none;dashed=1;html=1;rounded=0;" edge="1" parent="1" source="WJpGuPypxHFoIizaGQoz-26">
          <mxGeometry width="50" height="50" relative="1" as="geometry">
            <mxPoint x="400.8" y="210" as="sourcePoint" />
            <mxPoint x="400" y="840" as="targetPoint" />
          </mxGeometry>
        </mxCell>
        <mxCell id="WJpGuPypxHFoIizaGQoz-15" value="" style="endArrow=none;dashed=1;html=1;rounded=0;" edge="1" parent="1">
          <mxGeometry width="50" height="50" relative="1" as="geometry">
            <mxPoint x="480.8" y="210" as="sourcePoint" />
            <mxPoint x="480" y="840" as="targetPoint" />
          </mxGeometry>
        </mxCell>
        <mxCell id="WJpGuPypxHFoIizaGQoz-16" value="" style="endArrow=none;dashed=1;html=1;rounded=0;" edge="1" parent="1">
          <mxGeometry width="50" height="50" relative="1" as="geometry">
            <mxPoint x="679.8" y="210" as="sourcePoint" />
            <mxPoint x="680" y="840" as="targetPoint" />
          </mxGeometry>
        </mxCell>
        <mxCell id="WJpGuPypxHFoIizaGQoz-17" value="" style="endArrow=none;dashed=1;html=1;rounded=0;" edge="1" parent="1">
          <mxGeometry width="50" height="50" relative="1" as="geometry">
            <mxPoint x="799.8" y="210" as="sourcePoint" />
            <mxPoint x="800" y="840" as="targetPoint" />
          </mxGeometry>
        </mxCell>
        <mxCell id="WJpGuPypxHFoIizaGQoz-18" value="" style="rounded=0;whiteSpace=wrap;html=1;" vertex="1" parent="1">
          <mxGeometry x="70" y="240" width="20" height="320" as="geometry" />
        </mxCell>
        <mxCell id="WJpGuPypxHFoIizaGQoz-20" value="" style="endArrow=none;dashed=1;html=1;rounded=0;" edge="1" parent="1" target="WJpGuPypxHFoIizaGQoz-19">
          <mxGeometry width="50" height="50" relative="1" as="geometry">
            <mxPoint x="159.8" y="209" as="sourcePoint" />
            <mxPoint x="159.8" y="559" as="targetPoint" />
          </mxGeometry>
        </mxCell>
        <mxCell id="WJpGuPypxHFoIizaGQoz-19" value="" style="rounded=0;whiteSpace=wrap;html=1;" vertex="1" parent="1">
          <mxGeometry x="150" y="240" width="20" height="70" as="geometry" />
        </mxCell>
        <mxCell id="WJpGuPypxHFoIizaGQoz-21" value="" style="endArrow=classic;html=1;rounded=0;exitX=1.031;exitY=0.031;exitDx=0;exitDy=0;exitPerimeter=0;entryX=-0.068;entryY=0.135;entryDx=0;entryDy=0;entryPerimeter=0;" edge="1" parent="1" source="WJpGuPypxHFoIizaGQoz-18" target="WJpGuPypxHFoIizaGQoz-19">
          <mxGeometry width="50" height="50" relative="1" as="geometry">
            <mxPoint x="320" y="240" as="sourcePoint" />
            <mxPoint x="370" y="190" as="targetPoint" />
          </mxGeometry>
        </mxCell>
        <mxCell id="WJpGuPypxHFoIizaGQoz-23" value="&lt;font style=&quot;font-size: 6px;&quot;&gt;1: Store Document&lt;/font&gt;" style="text;html=1;align=center;verticalAlign=middle;whiteSpace=wrap;rounded=0;" vertex="1" parent="1">
          <mxGeometry x="103" y="243" width="25" height="8" as="geometry" />
        </mxCell>
        <mxCell id="WJpGuPypxHFoIizaGQoz-24" value="" style="html=1;verticalAlign=bottom;endArrow=open;dashed=1;endSize=8;curved=0;rounded=0;entryX=1;entryY=0.75;entryDx=0;entryDy=0;exitX=0;exitY=0.75;exitDx=0;exitDy=0;" edge="1" parent="1">
          <mxGeometry x="-1" y="61" relative="1" as="geometry">
            <mxPoint x="150" y="287.8" as="sourcePoint" />
            <mxPoint x="90" y="287.8" as="targetPoint" />
            <mxPoint x="60" y="-52" as="offset" />
          </mxGeometry>
        </mxCell>
        <mxCell id="WJpGuPypxHFoIizaGQoz-25" value="&lt;font style=&quot;text-wrap-mode: nowrap; font-size: 6px;&quot;&gt;2: Document Stored&lt;/font&gt;&lt;div style=&quot;font-size: 11px; text-wrap-mode: nowrap;&quot;&gt;&lt;font style=&quot;font-size: 6px;&quot;&gt;Cofirmation&lt;/font&gt;&lt;/div&gt;" style="text;html=1;align=center;verticalAlign=middle;whiteSpace=wrap;rounded=0;" vertex="1" parent="1">
          <mxGeometry x="90" y="270" width="60" height="30" as="geometry" />
        </mxCell>
        <mxCell id="WJpGuPypxHFoIizaGQoz-27" value="" style="endArrow=none;dashed=1;html=1;rounded=0;" edge="1" parent="1" target="WJpGuPypxHFoIizaGQoz-26">
          <mxGeometry width="50" height="50" relative="1" as="geometry">
            <mxPoint x="400.8" y="210" as="sourcePoint" />
            <mxPoint x="400.8" y="560" as="targetPoint" />
          </mxGeometry>
        </mxCell>
        <mxCell id="WJpGuPypxHFoIizaGQoz-26" value="" style="rounded=0;whiteSpace=wrap;html=1;" vertex="1" parent="1">
          <mxGeometry x="391" y="390" width="20" height="70" as="geometry" />
        </mxCell>
        <mxCell id="WJpGuPypxHFoIizaGQoz-28" value="" style="endArrow=classic;html=1;rounded=0;exitX=1.126;exitY=0.531;exitDx=0;exitDy=0;exitPerimeter=0;entryX=-0.112;entryY=0.307;entryDx=0;entryDy=0;entryPerimeter=0;" edge="1" parent="1" source="WJpGuPypxHFoIizaGQoz-18" target="WJpGuPypxHFoIizaGQoz-26">
          <mxGeometry width="50" height="50" relative="1" as="geometry">
            <mxPoint x="130.5" y="341" as="sourcePoint" />
            <mxPoint x="189.5" y="340" as="targetPoint" />
          </mxGeometry>
        </mxCell>
        <mxCell id="WJpGuPypxHFoIizaGQoz-29" value="&lt;font style=&quot;font-size: 6px;&quot;&gt;5: Payment Initiated&lt;/font&gt;" style="text;html=1;align=center;verticalAlign=middle;whiteSpace=wrap;rounded=0;" vertex="1" parent="1">
          <mxGeometry x="310" y="405" width="40" height="8" as="geometry" />
        </mxCell>
        <mxCell id="WJpGuPypxHFoIizaGQoz-30" value="&lt;span style=&quot;font-size: 6px; text-wrap-mode: nowrap;&quot;&gt;6: Payement&amp;nbsp;&lt;/span&gt;&lt;div&gt;&lt;span style=&quot;font-size: 6px; text-wrap-mode: nowrap;&quot;&gt;Confimation&lt;/span&gt;&lt;/div&gt;" style="text;html=1;align=center;verticalAlign=middle;whiteSpace=wrap;rounded=0;" vertex="1" parent="1">
          <mxGeometry x="302" y="423" width="60" height="30" as="geometry" />
        </mxCell>
        <mxCell id="WJpGuPypxHFoIizaGQoz-31" value="" style="html=1;verticalAlign=bottom;endArrow=open;dashed=1;endSize=8;curved=0;rounded=0;exitX=0;exitY=0.714;exitDx=0;exitDy=0;exitPerimeter=0;entryX=1.079;entryY=0.625;entryDx=0;entryDy=0;entryPerimeter=0;" edge="1" parent="1" source="WJpGuPypxHFoIizaGQoz-26" target="WJpGuPypxHFoIizaGQoz-18">
          <mxGeometry x="-1" y="61" relative="1" as="geometry">
            <mxPoint x="220" y="370" as="sourcePoint" />
            <mxPoint x="100" y="440" as="targetPoint" />
            <mxPoint x="60" y="-52" as="offset" />
          </mxGeometry>
        </mxCell>
        <mxCell id="WJpGuPypxHFoIizaGQoz-33" value="&lt;font style=&quot;font-size: 9px;&quot;&gt;:Document&lt;/font&gt;" style="rounded=0;whiteSpace=wrap;html=1;" vertex="1" parent="1">
          <mxGeometry x="240" y="135" width="80" height="30" as="geometry" />
        </mxCell>
        <mxCell id="WJpGuPypxHFoIizaGQoz-34" value="&lt;font style=&quot;font-size: 9px;&quot;&gt;:PrintJob&lt;/font&gt;" style="rounded=0;whiteSpace=wrap;html=1;" vertex="1" parent="1">
          <mxGeometry x="520" y="135" width="80" height="30" as="geometry" />
        </mxCell>
        <mxCell id="WJpGuPypxHFoIizaGQoz-35" value="" style="endArrow=none;dashed=1;html=1;rounded=0;" edge="1" parent="1" source="WJpGuPypxHFoIizaGQoz-67">
          <mxGeometry width="50" height="50" relative="1" as="geometry">
            <mxPoint x="279.8" y="210" as="sourcePoint" />
            <mxPoint x="280" y="680" as="targetPoint" />
          </mxGeometry>
        </mxCell>
        <mxCell id="WJpGuPypxHFoIizaGQoz-36" value="" style="endArrow=none;dashed=1;html=1;rounded=0;" edge="1" parent="1">
          <mxGeometry width="50" height="50" relative="1" as="geometry">
            <mxPoint x="559.8" y="210" as="sourcePoint" />
            <mxPoint x="560" y="840" as="targetPoint" />
          </mxGeometry>
        </mxCell>
        <mxCell id="WJpGuPypxHFoIizaGQoz-40" value="" style="endArrow=none;dashed=1;html=1;rounded=0;" edge="1" parent="1" target="WJpGuPypxHFoIizaGQoz-39">
          <mxGeometry width="50" height="50" relative="1" as="geometry">
            <mxPoint x="279.8" y="210" as="sourcePoint" />
            <mxPoint x="279.8" y="560" as="targetPoint" />
          </mxGeometry>
        </mxCell>
        <mxCell id="WJpGuPypxHFoIizaGQoz-39" value="" style="rounded=0;whiteSpace=wrap;html=1;" vertex="1" parent="1">
          <mxGeometry x="270" y="330" width="20" height="70" as="geometry" />
        </mxCell>
        <mxCell id="WJpGuPypxHFoIizaGQoz-41" value="" style="endArrow=classic;html=1;rounded=0;exitX=1.021;exitY=0.034;exitDx=0;exitDy=0;exitPerimeter=0;" edge="1" parent="1">
          <mxGeometry width="50" height="50" relative="1" as="geometry">
            <mxPoint x="90" y="343" as="sourcePoint" />
            <mxPoint x="270" y="342" as="targetPoint" />
          </mxGeometry>
        </mxCell>
        <mxCell id="WJpGuPypxHFoIizaGQoz-42" value="" style="html=1;verticalAlign=bottom;endArrow=open;dashed=1;endSize=8;curved=0;rounded=0;entryX=0.983;entryY=0.437;entryDx=0;entryDy=0;exitX=0;exitY=0.714;exitDx=0;exitDy=0;exitPerimeter=0;entryPerimeter=0;" edge="1" parent="1" source="WJpGuPypxHFoIizaGQoz-39" target="WJpGuPypxHFoIizaGQoz-18">
          <mxGeometry x="-1" y="61" relative="1" as="geometry">
            <mxPoint x="401" y="450" as="sourcePoint" />
            <mxPoint x="103" y="449" as="targetPoint" />
            <mxPoint x="60" y="-52" as="offset" />
          </mxGeometry>
        </mxCell>
        <mxCell id="WJpGuPypxHFoIizaGQoz-43" value="&lt;font style=&quot;font-size: 6px;&quot;&gt;3: Set Printer Preferences&lt;/font&gt;" style="text;html=1;align=center;verticalAlign=middle;whiteSpace=wrap;rounded=0;" vertex="1" parent="1">
          <mxGeometry x="210" y="337" width="40" height="8" as="geometry" />
        </mxCell>
        <mxCell id="WJpGuPypxHFoIizaGQoz-44" value="&lt;font style=&quot;font-size: 6px;&quot;&gt;4: Document Confirms PrinterPreferences&lt;/font&gt;" style="text;html=1;align=center;verticalAlign=middle;whiteSpace=wrap;rounded=0;" vertex="1" parent="1">
          <mxGeometry x="190" y="376" width="70" height="8" as="geometry" />
        </mxCell>
        <mxCell id="WJpGuPypxHFoIizaGQoz-47" value="" style="rounded=0;whiteSpace=wrap;html=1;" vertex="1" parent="1">
          <mxGeometry x="470" y="472" width="20" height="108" as="geometry" />
        </mxCell>
        <mxCell id="WJpGuPypxHFoIizaGQoz-48" value="" style="endArrow=classic;html=1;rounded=0;exitX=1.11;exitY=0.298;exitDx=0;exitDy=0;exitPerimeter=0;entryX=-0.064;entryY=0.166;entryDx=0;entryDy=0;entryPerimeter=0;" edge="1" parent="1" target="WJpGuPypxHFoIizaGQoz-47">
          <mxGeometry width="50" height="50" relative="1" as="geometry">
            <mxPoint x="90" y="490" as="sourcePoint" />
            <mxPoint x="387" y="491" as="targetPoint" />
          </mxGeometry>
        </mxCell>
        <mxCell id="WJpGuPypxHFoIizaGQoz-50" value="&lt;font style=&quot;font-size: 6px;&quot;&gt;7: Send PrintJob&lt;/font&gt;" style="text;html=1;align=center;verticalAlign=middle;whiteSpace=wrap;rounded=0;" vertex="1" parent="1">
          <mxGeometry x="412" y="484" width="40" height="8" as="geometry" />
        </mxCell>
        <mxCell id="WJpGuPypxHFoIizaGQoz-51" value="" style="rounded=0;whiteSpace=wrap;html=1;" vertex="1" parent="1">
          <mxGeometry x="550" y="472" width="20" height="70" as="geometry" />
        </mxCell>
        <mxCell id="WJpGuPypxHFoIizaGQoz-52" value="" style="endArrow=classic;html=1;rounded=0;exitX=0.932;exitY=0.016;exitDx=0;exitDy=0;exitPerimeter=0;entryX=-0.068;entryY=0.135;entryDx=0;entryDy=0;entryPerimeter=0;" edge="1" parent="1">
          <mxGeometry width="50" height="50" relative="1" as="geometry">
            <mxPoint x="490" y="487.8" as="sourcePoint" />
            <mxPoint x="550" y="487.8" as="targetPoint" />
          </mxGeometry>
        </mxCell>
        <mxCell id="WJpGuPypxHFoIizaGQoz-53" value="&lt;font style=&quot;font-size: 6px;&quot;&gt;8: Create Job&lt;/font&gt;" style="text;html=1;align=center;verticalAlign=middle;whiteSpace=wrap;rounded=0;" vertex="1" parent="1">
          <mxGeometry x="497" y="477" width="40" height="8" as="geometry" />
        </mxCell>
        <mxCell id="WJpGuPypxHFoIizaGQoz-57" value="" style="endArrow=classic;html=1;rounded=0;exitX=0.932;exitY=0.016;exitDx=0;exitDy=0;exitPerimeter=0;entryX=-0.068;entryY=0.135;entryDx=0;entryDy=0;entryPerimeter=0;" edge="1" parent="1">
          <mxGeometry width="50" height="50" relative="1" as="geometry">
            <mxPoint x="490" y="520" as="sourcePoint" />
            <mxPoint x="550" y="520" as="targetPoint" />
          </mxGeometry>
        </mxCell>
        <mxCell id="WJpGuPypxHFoIizaGQoz-58" value="&lt;font style=&quot;font-size: 6px;&quot;&gt;9: Approve Job&lt;/font&gt;" style="text;html=1;align=center;verticalAlign=middle;whiteSpace=wrap;rounded=0;" vertex="1" parent="1">
          <mxGeometry x="497" y="511" width="40" height="8" as="geometry" />
        </mxCell>
        <mxCell id="WJpGuPypxHFoIizaGQoz-61" value="" style="rounded=0;whiteSpace=wrap;html=1;" vertex="1" parent="1">
          <mxGeometry x="670" y="550" width="20" height="70" as="geometry" />
        </mxCell>
        <mxCell id="WJpGuPypxHFoIizaGQoz-62" value="" style="endArrow=classic;html=1;rounded=0;exitX=0.932;exitY=0.016;exitDx=0;exitDy=0;exitPerimeter=0;entryX=0;entryY=0.143;entryDx=0;entryDy=0;entryPerimeter=0;" edge="1" parent="1" target="WJpGuPypxHFoIizaGQoz-61">
          <mxGeometry width="50" height="50" relative="1" as="geometry">
            <mxPoint x="490" y="560" as="sourcePoint" />
            <mxPoint x="550" y="560" as="targetPoint" />
          </mxGeometry>
        </mxCell>
        <mxCell id="WJpGuPypxHFoIizaGQoz-63" value="&lt;font style=&quot;font-size: 6px;&quot;&gt;10: Request to add Job&lt;/font&gt;" style="text;html=1;align=center;verticalAlign=middle;whiteSpace=wrap;rounded=0;" vertex="1" parent="1">
          <mxGeometry x="590" y="554" width="40" height="8" as="geometry" />
        </mxCell>
        <mxCell id="WJpGuPypxHFoIizaGQoz-64" value="" style="rounded=0;whiteSpace=wrap;html=1;" vertex="1" parent="1">
          <mxGeometry x="790" y="550" width="20" height="120" as="geometry" />
        </mxCell>
        <mxCell id="WJpGuPypxHFoIizaGQoz-65" value="" style="endArrow=classic;html=1;rounded=0;exitX=0.932;exitY=0.016;exitDx=0;exitDy=0;exitPerimeter=0;entryX=-0.04;entryY=0.107;entryDx=0;entryDy=0;entryPerimeter=0;" edge="1" parent="1" target="WJpGuPypxHFoIizaGQoz-64">
          <mxGeometry width="50" height="50" relative="1" as="geometry">
            <mxPoint x="690" y="562" as="sourcePoint" />
            <mxPoint x="790" y="560" as="targetPoint" />
          </mxGeometry>
        </mxCell>
        <mxCell id="WJpGuPypxHFoIizaGQoz-66" value="&lt;font style=&quot;font-size: 6px;&quot;&gt;11: Send Job to Printer&lt;/font&gt;" style="text;html=1;align=center;verticalAlign=middle;whiteSpace=wrap;rounded=0;" vertex="1" parent="1">
          <mxGeometry x="710" y="557" width="40" height="8" as="geometry" />
        </mxCell>
        <mxCell id="WJpGuPypxHFoIizaGQoz-68" value="" style="endArrow=none;dashed=1;html=1;rounded=0;" edge="1" parent="1" source="WJpGuPypxHFoIizaGQoz-39" target="WJpGuPypxHFoIizaGQoz-67">
          <mxGeometry width="50" height="50" relative="1" as="geometry">
            <mxPoint x="280" y="400" as="sourcePoint" />
            <mxPoint x="280" y="840" as="targetPoint" />
          </mxGeometry>
        </mxCell>
        <mxCell id="WJpGuPypxHFoIizaGQoz-67" value="" style="rounded=0;whiteSpace=wrap;html=1;" vertex="1" parent="1">
          <mxGeometry x="270" y="593" width="20" height="70" as="geometry" />
        </mxCell>
        <mxCell id="WJpGuPypxHFoIizaGQoz-69" value="" style="html=1;verticalAlign=bottom;endArrow=open;dashed=1;endSize=8;curved=0;rounded=0;entryX=1;entryY=0.5;entryDx=0;entryDy=0;exitX=0;exitY=0.714;exitDx=0;exitDy=0;exitPerimeter=0;" edge="1" parent="1" target="WJpGuPypxHFoIizaGQoz-67">
          <mxGeometry x="-1" y="61" relative="1" as="geometry">
            <mxPoint x="790" y="630" as="sourcePoint" />
            <mxPoint x="491" y="631" as="targetPoint" />
            <mxPoint x="60" y="-52" as="offset" />
          </mxGeometry>
        </mxCell>
        <mxCell id="WJpGuPypxHFoIizaGQoz-70" value="&lt;font style=&quot;font-size: 6px;&quot;&gt;12: Start Printing Document&lt;/font&gt;" style="text;html=1;align=center;verticalAlign=middle;whiteSpace=wrap;rounded=0;" vertex="1" parent="1">
          <mxGeometry x="720" y="624" width="60" height="8" as="geometry" />
        </mxCell>
        <mxCell id="WJpGuPypxHFoIizaGQoz-72" value="" style="rounded=0;whiteSpace=wrap;html=1;" vertex="1" parent="1">
          <mxGeometry x="670" y="650" width="20" height="70" as="geometry" />
        </mxCell>
        <mxCell id="WJpGuPypxHFoIizaGQoz-73" value="" style="html=1;verticalAlign=bottom;endArrow=open;dashed=1;endSize=8;curved=0;rounded=0;exitX=0;exitY=0.714;exitDx=0;exitDy=0;exitPerimeter=0;entryX=0.936;entryY=0.203;entryDx=0;entryDy=0;entryPerimeter=0;" edge="1" parent="1" target="WJpGuPypxHFoIizaGQoz-72">
          <mxGeometry x="-1" y="61" relative="1" as="geometry">
            <mxPoint x="790" y="665" as="sourcePoint" />
            <mxPoint x="690" y="662" as="targetPoint" />
            <mxPoint x="60" y="-52" as="offset" />
          </mxGeometry>
        </mxCell>
        <mxCell id="WJpGuPypxHFoIizaGQoz-74" value="&lt;font style=&quot;font-size: 6px;&quot;&gt;13: Notify Job is complete&lt;/font&gt;" style="text;html=1;align=center;verticalAlign=middle;whiteSpace=wrap;rounded=0;" vertex="1" parent="1">
          <mxGeometry x="720" y="659" width="40" height="8" as="geometry" />
        </mxCell>
        <mxCell id="WJpGuPypxHFoIizaGQoz-75" value="" style="rounded=0;whiteSpace=wrap;html=1;" vertex="1" parent="1">
          <mxGeometry x="475" y="650" width="20" height="70" as="geometry" />
        </mxCell>
        <mxCell id="WJpGuPypxHFoIizaGQoz-76" value="" style="html=1;verticalAlign=bottom;endArrow=open;dashed=1;endSize=8;curved=0;rounded=0;exitX=0;exitY=0.714;exitDx=0;exitDy=0;exitPerimeter=0;entryX=0.995;entryY=0.203;entryDx=0;entryDy=0;entryPerimeter=0;" edge="1" parent="1" target="WJpGuPypxHFoIizaGQoz-75">
          <mxGeometry x="-1" y="61" relative="1" as="geometry">
            <mxPoint x="670" y="663.5" as="sourcePoint" />
            <mxPoint x="569" y="662.5" as="targetPoint" />
            <mxPoint x="60" y="-52" as="offset" />
          </mxGeometry>
        </mxCell>
        <mxCell id="WJpGuPypxHFoIizaGQoz-78" value="&lt;font style=&quot;font-size: 6px;&quot;&gt;14: Informs Vendor Job is complete&lt;/font&gt;" style="text;html=1;align=center;verticalAlign=middle;whiteSpace=wrap;rounded=0;" vertex="1" parent="1">
          <mxGeometry x="600" y="659" width="60" height="8" as="geometry" />
        </mxCell>
        <mxCell id="WJpGuPypxHFoIizaGQoz-80" value="" style="endArrow=none;dashed=1;html=1;rounded=0;" edge="1" parent="1" target="WJpGuPypxHFoIizaGQoz-79">
          <mxGeometry width="50" height="50" relative="1" as="geometry">
            <mxPoint x="80" y="210" as="sourcePoint" />
            <mxPoint x="80" y="840" as="targetPoint" />
          </mxGeometry>
        </mxCell>
        <mxCell id="WJpGuPypxHFoIizaGQoz-79" value="" style="rounded=0;whiteSpace=wrap;html=1;" vertex="1" parent="1">
          <mxGeometry x="70" y="680" width="20" height="70" as="geometry" />
        </mxCell>
        <mxCell id="WJpGuPypxHFoIizaGQoz-81" value="" style="html=1;verticalAlign=bottom;endArrow=open;dashed=1;endSize=8;curved=0;rounded=0;exitX=0.019;exitY=0.571;exitDx=0;exitDy=0;exitPerimeter=0;entryX=0.995;entryY=0.203;entryDx=0;entryDy=0;entryPerimeter=0;" edge="1" parent="1" source="WJpGuPypxHFoIizaGQoz-75">
          <mxGeometry x="-1" y="61" relative="1" as="geometry">
            <mxPoint x="265" y="690" as="sourcePoint" />
            <mxPoint x="90" y="690.5" as="targetPoint" />
            <mxPoint x="60" y="-52" as="offset" />
          </mxGeometry>
        </mxCell>
        <mxCell id="WJpGuPypxHFoIizaGQoz-82" value="&lt;font style=&quot;font-size: 6px;&quot;&gt;15: Notifies Student that document is ready for collection&amp;nbsp;&lt;/font&gt;" style="text;html=1;align=center;verticalAlign=middle;whiteSpace=wrap;rounded=0;" vertex="1" parent="1">
          <mxGeometry x="290" y="685" width="90" height="8" as="geometry" />
        </mxCell>
      </root>
    </mxGraphModel>
  </diagram>
</mxfile>
